<svg width="16" height="20" viewBox="0 0 16 20" fill="none" xmlns="http://www.w3.org/2000/svg">
<path fill-rule="evenodd" clip-rule="evenodd" d="M9.0001 1C9.0001 0.734784 8.89475 0.48043 8.70721 0.292893C8.51967 0.105357 8.26532 0 8.0001 0C7.73489 0 7.48053 0.105357 7.293 0.292893C7.10546 0.48043 7.0001 0.734784 7.0001 1V1.75H6.4431C5.37113 1.74993 4.33943 2.15839 3.55803 2.89224C2.77662 3.62608 2.30426 4.63014 2.2371 5.7L2.0161 9.234C1.93067 10.5812 1.47835 11.8794 0.708103 12.988C0.548736 13.2171 0.45136 13.4835 0.425446 13.7613C0.399531 14.0392 0.445959 14.319 0.560215 14.5736C0.674472 14.8281 0.852667 15.0488 1.07747 15.2142C1.30227 15.3795 1.56604 15.4838 1.8431 15.517L5.2501 15.925V17C5.2501 17.7293 5.53983 18.4288 6.05556 18.9445C6.57128 19.4603 7.27076 19.75 8.0001 19.75C8.72945 19.75 9.42892 19.4603 9.94465 18.9445C10.4604 18.4288 10.7501 17.7293 10.7501 17V15.925L14.1571 15.516C14.434 15.4827 14.6976 15.3784 14.9223 15.2131C15.1469 15.0478 15.325 14.8273 15.4393 14.5729C15.5535 14.3184 15.6 14.0388 15.5742 13.7611C15.5484 13.4834 15.4512 13.2171 15.2921 12.988C14.5219 11.8794 14.0695 10.5812 13.9841 9.234L13.7631 5.701C13.6962 4.63096 13.2239 3.62665 12.4425 2.8926C11.6611 2.15855 10.6292 1.74995 9.5571 1.75H9.0001V1ZM6.4431 3.25C5.75268 3.24992 5.08817 3.51297 4.58488 3.98561C4.08159 4.45825 3.77735 5.10493 3.7341 5.794L3.5141 9.328C3.41129 10.9487 2.86697 12.5105 1.9401 13.844C1.92857 13.8606 1.92152 13.8798 1.91964 13.8999C1.91776 13.92 1.9211 13.9403 1.92936 13.9587C1.93761 13.9771 1.95049 13.9931 1.96674 14.005C1.98299 14.017 2.00206 14.0246 2.0221 14.027L5.7591 14.476C7.2481 14.654 8.7521 14.654 10.2411 14.476L13.9781 14.027C13.9981 14.0246 14.0172 14.017 14.0335 14.005C14.0497 13.9931 14.0626 13.9771 14.0708 13.9587C14.0791 13.9403 14.0824 13.92 14.0806 13.8999C14.0787 13.8798 14.0716 13.8606 14.0601 13.844C13.1336 12.5104 12.5896 10.9486 12.4871 9.328L12.2661 5.794C12.2229 5.10493 11.9186 4.45825 11.4153 3.98561C10.912 3.51297 10.2475 3.24992 9.5571 3.25H6.4431ZM8.0001 18.25C7.3101 18.25 6.7501 17.69 6.7501 17V16.25H9.2501V17C9.2501 17.69 8.6901 18.25 8.0001 18.25Z" fill="white"/>
</svg>
