<svg width="14" height="20" viewBox="0 0 14 20" fill="none" xmlns="http://www.w3.org/2000/svg">
<path d="M1 13V7C1 5.4087 1.63214 3.88258 2.75736 2.75736C3.88258 1.63214 5.4087 1 7 1C8.5913 1 10.1174 1.63214 11.2426 2.75736C12.3679 3.88258 13 5.4087 13 7V15C13 16.0609 12.5786 17.0783 11.8284 17.8284C11.0783 18.5786 10.0609 19 9 19C7.93913 19 6.92172 18.5786 6.17157 17.8284C5.42143 17.0783 5 16.0609 5 15V7C5 6.46957 5.21071 5.96086 5.58579 5.58579C5.96086 5.21071 6.46957 5 7 5C7.53043 5 8.03914 5.21071 8.41421 5.58579C8.78929 5.96086 9 6.46957 9 7V15" stroke="#7A808C" stroke-width="1.5" stroke-linecap="round" stroke-linejoin="round"/>
</svg>
