<svg width="20" height="20" viewBox="0 0 20 20" fill="none" xmlns="http://www.w3.org/2000/svg">
<path fill-rule="evenodd" clip-rule="evenodd" d="M14.3028 0.75H5.65076C2.63876 0.75 0.749756 2.884 0.749756 5.904V14.05C0.749756 17.07 2.63076 19.204 5.65076 19.204H14.2978C17.3228 19.204 19.2028 17.07 19.2028 14.05V5.904C19.2068 2.884 17.3258 0.75 14.3028 0.75Z" stroke="#7A808C" stroke-width="1.5" stroke-linecap="round" stroke-linejoin="round"/>
<path fill-rule="evenodd" clip-rule="evenodd" d="M8.70323 6.78496C8.70323 7.80496 7.87723 8.63096 6.85723 8.63096C5.83823 8.63096 5.01123 7.80496 5.01123 6.78496C5.01123 5.76496 5.83823 4.93896 6.85723 4.93896C7.87623 4.93996 8.70223 5.76596 8.70323 6.78496Z" stroke="#7A808C" stroke-width="1.5" stroke-linecap="round" stroke-linejoin="round"/>
<path d="M19.207 12.951C18.284 12.001 16.509 10.082 14.579 10.082C12.648 10.082 11.535 14.315 9.678 14.315C7.821 14.315 6.134 12.401 4.646 13.628C3.158 14.854 1.75 17.361 1.75 17.361" stroke="#7A808C" stroke-width="1.5" stroke-linecap="round" stroke-linejoin="round"/>
</svg>
