<svg width="16" height="16" viewBox="0 0 16 16" fill="none" xmlns="http://www.w3.org/2000/svg">
<path d="M2.6665 5.33325H8.6665M11.3332 5.33325H13.3332M7.33317 10.6666H13.3332M2.6665 10.6666H4.6665" stroke="#7A808C" stroke-width="1.5" stroke-linecap="round" stroke-linejoin="round"/>
<path d="M5.99984 11.9999C6.73622 11.9999 7.33317 11.403 7.33317 10.6666C7.33317 9.93021 6.73622 9.33325 5.99984 9.33325C5.26346 9.33325 4.6665 9.93021 4.6665 10.6666C4.6665 11.403 5.26346 11.9999 5.99984 11.9999Z" stroke="#7A808C" stroke-width="1.5"/>
<path d="M9.99984 6.66667C10.7362 6.66667 11.3332 6.06971 11.3332 5.33333C11.3332 4.59695 10.7362 4 9.99984 4C9.26346 4 8.6665 4.59695 8.6665 5.33333C8.6665 6.06971 9.26346 6.66667 9.99984 6.66667Z" stroke="#7A808C" stroke-width="1.5"/>
</svg>
