<svg width="80" height="80" viewBox="0 0 80 80" fill="none" xmlns="http://www.w3.org/2000/svg">
<path fill-rule="evenodd" clip-rule="evenodd" d="M40 6.66669C36.142 6.66631 32.3661 7.78162 29.1275 9.87821C25.8889 11.9748 23.3256 14.9632 21.7467 18.4834C21.5221 18.9881 21.2921 19.4903 21.0567 19.99L20.99 19.9934C20.7767 20 20.4867 20 20 20C16.4638 20 13.0724 21.4048 10.5719 23.9053C8.07145 26.4058 6.66669 29.7971 6.66669 33.3334C6.66669 36.8696 8.07145 40.261 10.5719 42.7615C13.0724 45.2619 16.4638 46.6667 20 46.6667H20.5734L27.24 40H20C18.2319 40 16.5362 39.2976 15.286 38.0474C14.0357 36.7972 13.3334 35.1015 13.3334 33.3334C13.3334 31.5653 14.0357 29.8696 15.286 28.6193C16.5362 27.3691 18.2319 26.6667 20 26.6667H20.2134C20.9067 26.6667 21.7134 26.67 22.38 26.5334C23.209 26.388 24.0015 26.0823 24.7134 25.6334C25.5167 25.1134 26.07 24.4667 26.49 23.8767C26.7475 23.4967 26.9717 23.0952 27.16 22.6767C27.3367 22.31 27.5534 21.8267 27.8134 21.25L27.8267 21.2167C28.8781 18.8672 30.5869 16.8722 32.747 15.4724C34.907 14.0725 37.426 13.3277 40 13.3277C42.574 13.3277 45.093 14.0725 47.2531 15.4724C49.4131 16.8722 51.122 18.8672 52.1734 21.2167L52.19 21.25C52.4467 21.8267 52.6634 22.3067 52.84 22.6767C52.9934 23 53.22 23.47 53.51 23.8767C53.93 24.4634 54.48 25.1134 55.2867 25.6367C56.0934 26.1567 56.91 26.3934 57.62 26.5367C58.2867 26.67 59.0934 26.67 59.7867 26.67L60 26.6667C61.7681 26.6667 63.4638 27.3691 64.7141 28.6193C65.9643 29.8696 66.6667 31.5653 66.6667 33.3334C66.6667 35.1015 65.9643 36.7972 64.7141 38.0474C63.4638 39.2976 61.7681 40 60 40H52.76L59.4267 46.6667H60C63.5362 46.6667 66.9276 45.2619 69.4281 42.7615C71.9286 40.261 73.3334 36.8696 73.3334 33.3334C73.3334 29.7971 71.9286 26.4058 69.4281 23.9053C66.9276 21.4048 63.5362 20 60 20C59.5134 20 59.2234 20 59.01 19.9934H58.9434C57.5583 16.0815 54.9908 12.6972 51.5967 10.3094C48.2026 7.92166 44.1498 6.64863 40 6.66669Z" fill="#676767"/>
<path d="M40 40L37.6433 37.6433L40 35.2866L42.3567 37.6433L40 40ZM43.3333 70C43.3333 70.884 42.9821 71.7319 42.357 72.357C41.7319 72.9821 40.8841 73.3333 40 73.3333C39.1159 73.3333 38.2681 72.9821 37.643 72.357C37.0179 71.7319 36.6667 70.884 36.6667 70H43.3333ZM24.31 50.9766L37.6433 37.6433L42.3567 42.3566L29.0233 55.69L24.31 50.9766ZM42.3567 37.6433L55.69 50.9766L50.9767 55.69L37.6433 42.3566L42.3567 37.6433ZM43.3333 40V70H36.6667V40H43.3333Z" fill="#676767"/>
</svg>
